<?xml version="1.0" standalone="no"?>
<!DOCTYPE svg PUBLIC "-//W3C//DTD SVG 20010904//EN"
 "http://www.w3.org/TR/2001/REC-SVG-20010904/DTD/svg10.dtd">
<svg version="1.0" xmlns="http://www.w3.org/2000/svg"
 width="509.773127pt" height="189.500000pt" viewBox="0 0 509.773127 189.500000"
 preserveAspectRatio="xMidYMid meet">
<metadata>
Created by potrace 1.16, written by Peter Selinger 2001-2019
</metadata>
<g transform="translate(-2.116884,259.500000) scale(0.100000,-0.100000)"
fill="#000000" stroke="none">
<path d="M240 2556 c0 -19 -4 -38 -10 -41 -5 -3 -10 -1 -10 4 0 6 -4 11 -8 11
-5 0 -9 -16 -10 -36 -1 -36 -1 -36 33 -31 28 5 36 1 50 -19 28 -43 38 -30 29
39 -4 34 -8 72 -8 85 -1 18 -7 22 -33 22 -31 0 -33 -2 -33 -34z"/>
<path d="M510 2571 c0 -24 34 -22 38 2 2 12 -3 17 -17 17 -14 0 -21 -6 -21
-19z"/>
<path d="M703 2575 c0 -10 4 -12 10 -6 5 5 16 7 25 4 10 -4 13 -2 8 5 -10 17
-43 15 -43 -3z"/>
<path d="M759 2575 c-1 -8 -1 -22 -1 -30 0 -148 3 -215 12 -210 6 3 10 42 10
86 0 79 1 81 35 113 20 19 35 28 35 20 0 -8 8 -22 19 -33 19 -19 31 -75 36
-171 3 -50 6 -55 27 -55 18 0 29 -11 47 -47 20 -41 28 -48 52 -48 24 0 29 -4
29 -26 0 -14 12 -41 26 -59 20 -27 24 -41 19 -64 -6 -26 -4 -30 14 -26 19 4
111 91 111 106 0 4 3 9 8 12 4 2 2 2 -5 1 -11 -3 -83 103 -83 120 0 4 14 -1
30 -11 26 -15 32 -16 40 -4 8 14 6 49 -5 60 -3 3 -10 -1 -16 -9 -6 -11 -11
-12 -16 -3 -10 14 -73 25 -73 12 0 -4 -6 -6 -14 -3 -8 3 -12 12 -9 20 3 8 9
11 14 8 5 -3 6 2 2 11 -4 12 -8 13 -13 5 -5 -8 -9 -7 -14 5 -9 24 -8 27 6 19
7 -5 9 -2 5 7 -29 68 -67 173 -67 184 0 8 -5 17 -10 20 -7 4 -9 -3 -5 -22 l6
-28 -16 28 c-16 27 -16 27 -125 27 -91 0 -110 -3 -111 -15z m286 -118 c20 -50
24 -72 16 -80 -15 -15 -14 -30 1 -21 7 4 8 3 4 -4 -4 -7 -2 -12 3 -12 6 0 11
-4 11 -8 0 -4 -12 -8 -27 -7 -24 0 -28 4 -28 28 -1 17 -8 33 -18 38 -19 11
-23 54 -6 65 8 5 10 -3 7 -25 -4 -25 -1 -31 11 -29 9 1 22 -1 29 -5 14 -9 15
-6 6 17 -3 9 -10 13 -15 10 -5 -3 -6 3 -2 12 5 12 3 15 -6 9 -10 -6 -11 -2 -6
15 4 14 3 20 -2 17 -6 -4 -10 7 -11 24 0 17 1 29 2 28 2 -2 16 -35 31 -72z
m65 -162 c11 -2 20 1 20 6 0 6 5 7 11 3 6 -3 8 -16 5 -27 -3 -13 5 -39 21 -66
14 -24 20 -40 13 -36 -9 6 -9 3 -1 -14 7 -11 14 -21 17 -21 3 0 2 5 -2 12 -4
7 -3 8 4 4 6 -4 8 -14 5 -23 -5 -12 -3 -14 8 -8 8 4 4 -2 -7 -15 -24 -24 -44
-20 -44 10 0 10 -5 22 -12 26 -7 5 -8 2 -3 -7 7 -12 5 -12 -6 -1 -8 7 -14 18
-15 25 0 7 -2 20 -2 30 -1 10 -6 15 -12 12 -5 -3 -10 -2 -10 3 0 16 13 22 26
11 19 -15 26 5 9 27 -15 18 -15 18 -8 -1 6 -18 5 -19 -12 -5 -17 13 -18 13
-11 0 4 -8 -4 -2 -17 14 -23 27 -27 63 -6 50 5 -3 18 -7 29 -9z m91 -38 c-10
-9 -11 -8 -5 6 3 10 9 15 12 12 3 -3 0 -11 -7 -18z"/>
<path d="M1127 2543 c1 -27 2 -51 2 -55 1 -13 19 -9 35 8 9 9 16 32 16 55 0
36 -2 39 -27 39 -27 0 -28 -2 -26 -47z m24 14 c-10 -9 -11 -8 -5 6 3 10 9 15
12 12 3 -3 0 -11 -7 -18z"/>
<path d="M1752 2399 c-2 -192 -2 -196 21 -215 22 -19 22 -19 5 2 -15 17 -18
48 -21 215 l-2 194 -3 -196z"/>
<path d="M1850 2545 c0 -28 6 -52 17 -65 17 -20 29 -20 657 -20 l639 0 22 24
c14 15 22 36 22 65 0 35 -2 41 -21 41 -17 0 -18 -2 -6 -10 10 -7 -21 -10 -101
-9 -69 1 -125 -3 -137 -10 -14 -7 -145 -11 -414 -11 -375 0 -394 1 -426 20
-27 17 -50 20 -142 20 l-110 0 0 -45z"/>
<path d="M3292 2406 c-2 -180 -3 -191 -24 -215 l-22 -26 27 25 27 26 -3 189
-2 190 -3 -189z"/>
<path d="M3810 2580 c-8 -5 -22 -11 -32 -14 -9 -2 -29 -31 -45 -64 -27 -56
-27 -59 -6 -45 12 8 25 28 28 44 10 44 22 35 30 -21 5 -39 11 -50 25 -50 11 0
25 -9 33 -21 9 -13 17 -16 22 -10 3 6 2 11 -3 11 -6 0 -12 7 -16 15 -3 8 -2
14 2 12 6 -2 13 8 11 16 0 1 -1 32 -2 69 -2 70 -10 80 -47 58z"/>
<path d="M3915 2543 c0 -27 4 -55 7 -63 11 -26 17 -77 11 -84 -3 -3 -12 -1
-20 6 -7 6 -16 8 -19 5 -3 -3 4 -10 15 -16 16 -9 19 -16 12 -35 -7 -17 -6 -23
5 -23 9 0 13 6 10 14 -4 9 -1 11 6 7 8 -5 9 -2 5 10 -5 11 -3 15 5 10 8 -5 9
-2 5 10 -5 11 -3 15 5 10 8 -5 9 -2 5 9 -3 10 -2 17 3 17 5 0 6 7 3 17 -5 12
-3 14 7 8 10 -6 12 -4 7 8 -9 23 10 70 24 61 8 -4 9 1 4 17 -5 19 -4 21 5 9 9
-12 10 -9 5 13 -4 19 -2 26 5 22 5 -3 10 -1 10 4 0 7 -25 11 -64 11 l-63 0 2
-47z"/>
<path d="M4055 2569 c5 -16 4 -19 -6 -14 -9 6 -11 3 -6 -8 3 -10 2 -17 -4 -17
-6 0 -8 -10 -4 -22 5 -19 4 -20 -5 -8 -10 12 -11 11 -7 -8 3 -12 1 -20 -4 -17
-5 3 -7 -12 -5 -34 2 -22 1 -40 -3 -39 -18 2 -30 -4 -35 -18 -3 -8 -2 -12 4
-9 6 3 7 -1 4 -9 -3 -9 -1 -16 5 -16 6 0 11 7 11 15 0 8 5 15 10 15 14 0 13
-23 -2 -38 -14 -14 -20 -45 -7 -36 5 3 9 1 9 -4 0 -6 -7 -13 -16 -16 -8 -3
-12 -11 -9 -16 4 -6 1 -9 -6 -8 -7 2 -13 -2 -14 -9 0 -6 -3 -15 -7 -18 -4 -4
4 -17 19 -28 l26 -21 18 23 c11 13 26 49 35 80 9 31 36 106 60 168 24 61 44
116 44 122 0 7 -22 11 -56 11 -52 0 -55 -1 -49 -21z m7 -221 c-7 -7 -12 -8
-12 -2 0 14 12 26 19 19 2 -3 -1 -11 -7 -17z"/>
<path d="M4617 2533 c5 -69 9 -83 23 -83 6 0 10 29 10 70 0 61 -2 70 -18 70
-16 0 -18 -7 -15 -57z"/>
<path d="M5110 2571 c0 -11 -6 -22 -12 -24 -10 -4 -10 -6 0 -6 8 -1 12 -24 12
-81 l0 -81 -57 3 c-32 2 -60 -1 -63 -7 -3 -6 18 -11 53 -13 53 -3 57 -5 57
-27 0 -23 -4 -25 -45 -25 -25 0 -45 -4 -45 -8 0 -4 20 -6 45 -5 l45 3 -3 -35
c-3 -20 -1 -37 3 -40 12 -7 5 -76 -9 -84 -7 -5 -10 -14 -7 -20 4 -6 2 -11 -3
-11 -6 0 -11 -5 -11 -11 0 -5 5 -7 10 -4 6 3 10 2 10 -4 0 -5 -4 -11 -10 -13
-6 -2 -3 -27 7 -63 12 -43 18 -123 23 -280 4 -167 6 -89 8 318 1 295 0 537 -3
537 -3 0 -5 -9 -5 -19z"/>
<path d="M1281 2564 c0 -11 3 -14 6 -6 3 7 2 16 -1 19 -3 4 -6 -2 -5 -13z"/>
<path d="M1208 2482 c3 -48 8 -88 13 -90 14 -5 11 -22 -3 -19 -7 1 -14 -8 -16
-20 -2 -13 2 -23 8 -23 17 0 30 46 31 111 1 43 5 59 15 59 15 0 19 28 6 46 -4
6 -19 14 -33 17 l-25 6 4 -87z"/>
<path d="M3710 2521 c-7 -17 -18 -36 -26 -42 -8 -6 -14 -16 -14 -22 0 -11 31
28 49 61 7 13 11 26 8 28 -2 3 -10 -9 -17 -25z"/>
<path d="M1290 2534 c0 -6 7 -19 16 -30 14 -18 14 -18 3 6 -14 31 -19 36 -19
24z"/>
<path d="M706 2514 c-4 -10 -1 -14 6 -12 15 5 23 28 10 28 -5 0 -13 -7 -16
-16z"/>
<path d="M4420 2491 c0 -19 17 -38 25 -29 7 7 -7 48 -16 48 -5 0 -9 -9 -9 -19z"/>
<path d="M725 2490 c-3 -5 -1 -10 4 -10 6 0 11 5 11 10 0 6 -2 10 -4 10 -3 0
-8 -4 -11 -10z"/>
<path d="M170 2470 c0 -5 5 -10 11 -10 5 0 7 5 4 10 -3 6 -8 10 -11 10 -2 0
-4 -4 -4 -10z"/>
<path d="M1326 2467 c3 -10 9 -15 12 -12 3 3 0 11 -7 18 -10 9 -11 8 -5 -6z"/>
<path d="M4152 2460 c0 -14 2 -19 5 -12 2 6 2 18 0 25 -3 6 -5 1 -5 -13z"/>
<path d="M3634 2455 c-10 -8 -14 -15 -8 -15 6 0 17 7 24 15 16 19 9 19 -16 0z"/>
<path d="M1130 2449 c0 -5 5 -7 10 -4 6 3 10 8 10 11 0 2 -4 4 -10 4 -5 0 -10
-5 -10 -11z"/>
<path d="M3596 2443 c-6 -14 -5 -15 5 -6 7 7 10 15 7 18 -3 3 -9 -2 -12 -12z"/>
<path d="M3881 2444 c0 -11 3 -14 6 -6 3 7 2 16 -1 19 -3 4 -6 -2 -5 -13z"/>
<path d="M1080 2442 c0 -4 10 -13 21 -20 15 -10 24 -11 32 -3 8 8 5 11 -11 11
-12 0 -22 5 -22 10 0 6 -4 10 -10 10 -5 0 -10 -3 -10 -8z"/>
<path d="M1420 2441 c0 -6 4 -13 10 -16 6 -3 7 1 4 9 -7 18 -14 21 -14 7z"/>
<path d="M3996 2435 c-9 -26 -7 -32 5 -12 6 10 9 21 6 23 -2 3 -7 -2 -11 -11z"/>
<path d="M1297 2428 c7 -8 10 -18 6 -21 -3 -4 -1 -7 6 -7 17 0 10 32 -9 38
-12 4 -13 3 -3 -10z"/>
<path d="M2060 2401 c0 -5 -3 -18 -6 -28 -5 -15 -3 -15 7 2 7 11 17 23 23 27
7 5 4 8 -6 8 -10 0 -18 -4 -18 -9z"/>
<path d="M1108 2371 c4 -11 10 -20 15 -20 23 -2 27 0 21 10 -4 8 -9 7 -15 -2
-7 -11 -9 -10 -9 3 0 9 -4 20 -10 23 -6 4 -7 -2 -2 -14z"/>
<path d="M3802 2363 c-1 -14 1 -23 5 -19 10 10 14 46 5 46 -4 0 -9 -12 -10
-27z"/>
<path d="M4880 2361 c-6 -12 -10 -93 -10 -195 0 -147 -2 -176 -14 -176 -8 0
-17 4 -20 9 -4 5 -40 9 -81 9 -67 0 -75 -2 -75 -19 0 -20 -15 -26 -25 -9 -9
15 -39 12 -61 -6 -10 -8 -13 -12 -6 -9 11 6 11 3 0 -14 -7 -12 -17 -21 -22
-21 -13 0 35 -45 49 -46 5 0 20 6 33 13 13 8 31 11 40 7 32 -13 57 -11 82 8
20 15 31 16 59 8 19 -5 41 -16 50 -24 15 -13 21 -13 59 7 36 18 46 19 63 8 12
-7 23 -10 27 -7 8 8 -29 166 -39 166 -5 0 -6 7 -3 15 4 11 1 14 -12 12 -11 -1
-25 -6 -31 -10 -8 -5 -13 -4 -13 2 0 6 -4 11 -10 11 -5 0 -10 -7 -10 -15 0 -8
-4 -15 -10 -15 -10 0 -12 23 -15 165 -2 97 3 125 22 125 8 0 11 5 8 10 -10 16
-23 12 -35 -9z"/>
<path d="M221 2354 c0 -11 3 -14 6 -6 3 7 2 16 -1 19 -3 4 -6 -2 -5 -13z"/>
<path d="M4110 2366 c0 -2 7 -7 16 -10 8 -3 12 -2 9 4 -6 10 -25 14 -25 6z"/>
<path d="M3850 2350 c0 -5 7 -10 16 -10 8 0 12 5 9 10 -3 6 -10 10 -16 10 -5
0 -9 -4 -9 -10z"/>
<path d="M3957 2346 c-3 -8 -2 -18 3 -21 13 -8 20 9 11 24 -6 10 -10 9 -14 -3z"/>
<path d="M1155 2330 c4 -6 11 -8 16 -5 14 9 11 15 -7 15 -8 0 -12 -5 -9 -10z"/>
<path d="M1240 2331 c0 -6 4 -13 10 -16 6 -3 7 1 4 9 -7 18 -14 21 -14 7z"/>
<path d="M1285 2331 c-3 -5 -2 -12 3 -15 5 -3 9 1 9 9 0 17 -3 19 -12 6z"/>
<path d="M4328 2323 c7 -3 16 -2 19 1 4 3 -2 6 -13 5 -11 0 -14 -3 -6 -6z"/>
<path d="M3936 2303 c-6 -14 -5 -15 5 -6 7 7 10 15 7 18 -3 3 -9 -2 -12 -12z"/>
<path d="M4900 2300 c0 -5 7 -10 15 -10 8 0 15 5 15 10 0 6 -7 10 -15 10 -8 0
-15 -4 -15 -10z"/>
<path d="M3810 2290 c0 -5 5 -10 11 -10 5 0 7 5 4 10 -3 6 -8 10 -11 10 -2 0
-4 -4 -4 -10z"/>
<path d="M3886 2254 c-21 -38 -23 -45 -8 -42 9 2 16 11 14 20 -2 12 3 16 17
13 12 -2 24 1 27 7 5 7 2 8 -6 3 -10 -6 -12 -4 -7 9 5 11 3 15 -5 10 -8 -5 -9
-2 -5 9 12 31 -1 17 -27 -29z"/>
<path d="M570 2286 c0 -2 7 -7 16 -10 8 -3 12 -2 9 4 -6 10 -25 14 -25 6z"/>
<path d="M620 2275 c0 -8 5 -15 10 -15 6 0 10 7 10 15 0 8 -4 15 -10 15 -5 0
-10 -7 -10 -15z"/>
<path d="M229 2266 c-3 -3 -4 -62 -2 -131 3 -109 2 -125 -12 -125 -9 0 -14 4
-11 8 2 4 1 14 -5 22 -7 13 -9 13 -9 0 0 -12 -2 -13 -9 -1 -5 7 -27 15 -50 17
-22 1 -45 5 -51 9 -5 3 -10 -1 -10 -9 0 -22 -20 -20 -21 2 -2 22 -18 -55 -18
-88 -1 -19 7 -29 29 -38 25 -12 32 -11 45 1 18 18 55 11 73 -15 16 -22 55 -24
72 -3 16 19 37 19 74 0 37 -20 46 -19 79 9 23 18 27 28 22 49 -4 15 -13 27
-20 27 -19 0 -25 34 -25 148 0 79 3 103 13 100 6 -3 13 -14 15 -26 2 -12 7
-22 12 -22 9 0 6 33 -5 50 -8 13 -122 13 -130 0 -4 -6 9 -9 34 -6 46 4 48 -1
49 -101 l1 -63 -32 1 c-31 1 -31 1 -7 9 l25 8 -27 1 c-16 1 -28 -3 -28 -9 0
-13 -46 -9 -48 5 -1 5 -5 48 -9 93 -5 46 -10 81 -14 78z"/>
<path d="M1817 2256 c-6 -16 16 -40 26 -29 4 3 7 15 7 25 0 21 -25 24 -33 4z"/>
<path d="M3197 2256 c-7 -16 1 -26 20 -26 7 0 13 9 13 20 0 23 -25 27 -33 6z"/>
<path d="M4221 2227 c-5 -13 -17 -29 -27 -37 -14 -12 -16 -12 -9 -1 5 9 4 12
-3 7 -18 -11 -97 -229 -182 -506 -28 -91 -53 -171 -56 -179 -4 -11 -2 -12 11
-1 12 10 15 10 15 -3 0 -8 -7 -34 -15 -57 -21 -58 -12 -62 10 -5 19 51 34 55
16 4 -17 -49 -7 -45 28 10 17 28 33 51 36 51 4 0 3 -4 0 -10 -3 -5 -2 -10 3
-10 5 0 34 63 63 141 l54 141 118 -124 c66 -67 116 -117 112 -110 -12 23 14
12 51 -23 20 -19 40 -35 44 -35 4 0 20 -16 35 -36 15 -19 30 -33 33 -29 3 3
-12 24 -34 46 -52 55 -11 34 50 -25 25 -25 46 -42 46 -37 0 4 -18 32 -41 62
-59 79 -68 100 -24 59 31 -29 28 -21 -20 40 -33 41 -97 120 -144 175 -47 55
-92 108 -100 118 -13 16 -12 19 6 32 12 8 89 71 171 140 144 119 198 171 138
132 l-27 -18 11 23 c10 19 10 21 -1 11 -7 -7 -19 -13 -26 -13 -9 0 -3 16 17
45 l31 45 -71 -37 c-38 -20 -70 -40 -70 -45 0 -4 -5 -8 -12 -8 -11 0 -37 -20
-165 -127 l-51 -44 19 58 c10 32 25 76 33 98 13 35 13 40 -1 43 -9 3 -13 11
-10 23 3 13 1 17 -6 12 -7 -4 -20 -8 -29 -8 -13 -1 -17 3 -12 17 8 26 -5 22
-15 -5z"/>
<path d="M4390 2199 c0 -5 5 -7 10 -4 6 3 10 8 10 11 0 2 -4 4 -10 4 -5 0 -10
-5 -10 -11z"/>
<path d="M3840 2172 c-25 -10 -44 -24 -42 -30 1 -7 -1 -12 -5 -13 -27 -3 -47
-9 -56 -18 -8 -8 -7 -11 4 -11 10 0 8 -5 -7 -18 -34 -28 -90 -103 -123 -167
-18 -33 -29 -51 -26 -40 23 69 12 206 -15 190 -6 -3 -18 2 -28 11 -15 16 -15
17 0 12 28 -11 29 19 1 46 -53 53 -134 43 -232 -29 -62 -46 -75 -60 -43 -48 9
4 -6 -19 -34 -50 -52 -59 -92 -130 -115 -204 l-13 -41 -18 29 c-10 17 -37 38
-61 48 -38 16 -40 19 -20 25 35 11 122 83 144 119 21 35 25 97 9 128 -40 74
-235 70 -412 -10 -51 -23 -64 -37 -25 -28 23 6 24 7 -30 -31 -17 -12 -17 -13
1 -7 17 5 17 3 5 -11 -13 -16 -10 -17 33 -12 l47 5 -28 -56 c-16 -31 -41 -85
-56 -121 -15 -36 -34 -73 -43 -82 -9 -11 -11 -18 -4 -18 19 0 14 -27 -17 -98
-43 -100 -46 -112 -24 -113 10 0 -13 -16 -52 -35 -56 -28 -63 -34 -35 -29 34
6 34 5 15 -11 -19 -16 -19 -16 8 -10 42 10 32 -9 -15 -27 -23 -9 -39 -19 -36
-22 3 -3 21 2 41 10 43 18 50 19 42 5 -9 -14 15 -12 44 4 14 8 30 12 37 9 6
-2 43 10 80 28 38 18 73 31 77 30 27 -5 226 122 250 160 6 10 14 19 17 19 3 0
6 -19 6 -43 2 -83 53 -137 126 -137 18 1 44 7 57 14 14 8 30 12 37 9 6 -2 31
15 55 38 24 24 47 42 51 41 11 -3 82 96 117 163 30 58 31 59 24 20 -4 -22 -8
-72 -8 -110 0 -56 5 -76 22 -101 40 -56 96 -66 187 -31 21 8 51 26 66 41 16
14 33 26 38 26 15 0 64 59 105 126 53 88 87 198 87 284 0 67 -2 74 -29 100
-20 17 -27 30 -20 37 16 16 -27 45 -73 49 -27 3 -60 -3 -88 -14z m-805 -132
c9 -15 -68 -92 -124 -123 -28 -16 -51 -25 -51 -21 0 23 57 144 70 147 30 9 99
7 105 -3z m883 -6 c20 -36 -27 -201 -79 -276 -34 -50 -81 -98 -111 -114 -23
-12 -29 -12 -42 2 -22 21 -20 57 7 135 30 87 82 171 139 225 50 47 72 54 86
28z m-448 -53 c0 -90 -62 -223 -141 -304 -43 -45 -62 -58 -80 -55 -22 3 -24 7
-23 63 1 71 30 143 96 236 49 70 116 123 136 107 6 -6 12 -27 12 -47z m-511
-230 c32 -20 -14 -62 -143 -132 -64 -34 -78 -39 -72 -23 4 10 19 49 33 86 19
50 30 68 46 71 41 8 122 7 136 -2z"/>
<path d="M3860 1919 c0 -5 5 -7 10 -4 6 3 10 8 10 11 0 2 -4 4 -10 4 -5 0 -10
-5 -10 -11z"/>
<path d="M400 2160 c0 -5 5 -10 10 -10 6 0 10 5 10 10 0 6 -4 10 -10 10 -5 0
-10 -4 -10 -10z"/>
<path d="M1002 2158 c-7 -7 -12 -17 -12 -22 0 -6 -12 -20 -27 -30 -14 -11 -23
-14 -19 -8 4 7 3 12 -3 12 -5 0 -13 -4 -16 -10 -3 -5 -19 -10 -34 -10 -21 0
-36 -10 -55 -34 -14 -19 -26 -39 -26 -44 0 -6 -4 -12 -9 -14 -10 -3 -113 -148
-210 -295 -51 -77 -57 -82 -115 -103 -64 -23 -91 -40 -65 -40 8 -1 3 -7 -11
-16 -25 -15 -25 -15 -2 -10 23 4 23 4 6 -15 -10 -11 -14 -20 -9 -19 11 2 55
-10 55 -16 0 -2 -25 -44 -55 -94 -58 -96 -105 -184 -105 -197 0 -4 11 6 25 22
24 28 24 27 -5 -34 -17 -34 -30 -65 -27 -67 2 -2 25 27 52 66 45 65 76 93 60
53 -4 -10 -10 -25 -13 -33 -12 -29 66 67 141 174 42 60 77 112 79 115 5 11
158 50 158 41 0 -5 -15 -62 -34 -127 -18 -65 -36 -134 -40 -153 -5 -31 -5 -32
6 -12 20 40 26 23 12 -33 -8 -31 -13 -59 -10 -64 3 -4 1 -25 -5 -45 -19 -69
-3 -62 21 9 22 65 25 68 30 40 6 -30 7 -30 19 15 7 24 20 63 29 85 15 38 16
39 22 15 5 -20 11 -9 28 55 62 223 79 268 102 277 13 5 25 7 27 4 3 -2 0 -21
-6 -43 -15 -53 -14 -89 4 -127 17 -36 61 -66 97 -66 52 0 131 39 176 87 34 37
40 41 27 18 -12 -22 -3 -16 34 23 39 40 71 93 130 215 44 89 83 176 86 192 4
17 16 48 26 71 11 23 17 48 14 56 -3 8 3 37 15 64 20 48 20 48 0 24 -11 -14
-20 -29 -20 -33 0 -5 -4 -5 -10 -2 -5 3 -7 0 -5 -7 4 -9 -2 -14 -14 -14 -12 0
-17 5 -14 16 3 8 -7 2 -21 -15 -21 -23 -25 -25 -16 -7 6 13 7 22 1 22 -5 0
-60 -102 -121 -226 -92 -186 -122 -237 -164 -280 -29 -30 -60 -54 -70 -54 -16
0 -18 7 -14 53 3 39 25 97 87 227 88 187 102 226 76 217 -18 -7 -20 4 -3 21
19 19 5 23 -26 7 -25 -13 -27 -13 -22 0 18 45 15 45 -13 2 -18 -26 -36 -45
-42 -42 -9 6 -149 -269 -149 -293 0 -10 -57 -28 -65 -20 -3 2 8 49 24 104 61
212 76 285 62 293 -10 7 -11 13 -1 30 11 21 10 22 -9 11 -24 -12 -28 -1 -11
31 12 22 9 24 -8 7z m-182 -403 c-28 -87 -29 -90 -65 -99 -20 -4 -38 -6 -41
-4 -2 3 25 49 62 102 36 54 68 96 70 94 2 -2 -10 -44 -26 -93z"/>
<path d="M4950 2160 c0 -5 5 -10 10 -10 6 0 10 5 10 10 0 6 -4 10 -10 10 -5 0
-10 -4 -10 -10z"/>
<path d="M2172 2084 c-23 -31 -42 -51 -42 -44 0 27 -29 -12 -54 -73 -13 -34
-43 -107 -66 -162 -60 -144 -141 -368 -135 -373 3 -3 5 0 5 6 0 7 5 12 11 12
6 0 9 -6 6 -14 -3 -8 -1 -16 5 -18 8 -3 8 -10 -1 -25 -24 -45 -10 -43 22 3 35
52 68 75 48 33 -10 -21 -9 -21 10 3 41 50 273 609 257 619 -6 4 -7 13 -3 20 6
9 3 11 -8 6 -10 -4 -17 -2 -17 5 0 7 -5 6 -15 -2 -23 -19 -18 1 7 27 12 13 19
25 16 28 -2 3 -23 -20 -46 -51z"/>
<path d="M5055 2130 c3 -5 8 -10 11 -10 2 0 4 5 4 10 0 6 -5 10 -11 10 -5 0
-7 -4 -4 -10z"/>
<path d="M266 2114 c-3 -8 -2 -13 3 -9 5 3 11 2 14 -2 2 -5 2 -2 0 6 -2 10 6
12 32 9 19 -2 35 0 35 4 0 4 -18 8 -39 8 -26 0 -41 -5 -45 -16z"/>
<path d="M2479 2121 c-38 -12 -121 -60 -144 -83 l-20 -20 25 12 c20 9 19 7 -7
-14 -47 -39 -122 -142 -159 -221 -22 -45 -38 -100 -46 -151 -10 -72 -10 -87 6
-129 12 -30 29 -53 50 -66 55 -34 156 -19 200 30 10 11 23 18 28 15 24 -15
149 145 196 251 37 84 57 188 48 238 -8 45 -42 80 -69 71 -17 -5 -18 -4 -6 9
8 8 21 12 29 9 11 -4 10 0 -4 16 -10 12 -35 26 -55 32 -40 11 -37 11 -72 1z
m45 -186 c-1 -68 -27 -140 -76 -217 -48 -75 -93 -124 -131 -144 -73 -39 -77
62 -7 203 52 106 153 217 191 211 22 -3 24 -8 23 -53z"/>
<path d="M140 2100 c0 -5 5 -10 11 -10 5 0 7 5 4 10 -3 6 -8 10 -11 10 -2 0
-4 -4 -4 -10z"/>
<path d="M1475 2090 c-3 -5 -1 -10 4 -10 6 0 11 5 11 10 0 6 -2 10 -4 10 -3 0
-8 -4 -11 -10z"/>
<path d="M1764 2090 c-90 -13 -212 -60 -159 -60 18 0 17 -2 -5 -20 -14 -11
-21 -20 -16 -20 5 0 3 -7 -4 -15 -11 -13 -10 -15 6 -9 18 5 18 4 -1 -11 -19
-16 -19 -16 8 -10 15 4 27 5 27 3 0 -3 -22 -52 -49 -109 -86 -182 -142 -321
-136 -338 3 -12 -10 -26 -48 -49 -29 -18 -41 -30 -27 -26 23 6 24 6 10 -11
-14 -16 -13 -17 8 -11 35 11 26 -7 -18 -34 -50 -31 -45 -38 8 -11 23 12 48 18
56 15 9 -3 31 3 49 15 19 11 37 18 40 15 3 -4 19 3 35 15 17 12 35 21 41 21
16 0 139 77 191 119 112 91 198 204 225 295 22 72 11 129 -32 177 -48 53 -117
73 -209 59z m104 -142 c30 -30 8 -104 -56 -185 -35 -43 -199 -183 -215 -183
-7 0 69 172 123 281 23 44 38 84 35 89 -9 15 99 12 113 -2z"/>
<path d="M400 2020 c0 -5 5 -10 11 -10 5 0 7 5 4 10 -3 6 -8 10 -11 10 -2 0
-4 -4 -4 -10z"/>
<path d="M455 1949 c-15 -6 -12 -8 15 -8 20 -1 46 -9 60 -18 17 -12 25 -13 28
-5 5 15 56 15 99 0 28 -10 36 -10 48 3 14 14 12 15 -22 14 -21 -1 -45 4 -53
11 -13 10 -50 12 -85 4 -5 -1 -12 -1 -15 0 -15 6 -58 6 -75 -1z"/>
<path d="M4464 1917 c-23 -20 -25 -25 -11 -30 9 -3 22 0 29 7 7 7 18 11 23 9
6 -2 20 3 30 11 20 15 20 15 0 12 -11 -2 -25 1 -31 6 -8 6 -22 0 -40 -15z"/>
<path d="M1330 1915 c0 -8 5 -15 10 -15 6 0 10 7 10 15 0 8 -4 15 -10 15 -5 0
-10 -7 -10 -15z"/>
<path d="M325 1891 c-3 -5 -1 -12 5 -16 5 -3 10 1 10 9 0 18 -6 21 -15 7z"/>
<path d="M360 1870 c0 -5 12 -10 28 -9 24 0 25 1 7 9 -27 12 -35 12 -35 0z"/>
<path d="M455 1870 c3 -5 8 -10 11 -10 2 0 4 5 4 10 0 6 -5 10 -11 10 -5 0 -7
-4 -4 -10z"/>
<path d="M4875 1720 c3 -5 8 -10 11 -10 2 0 4 5 4 10 0 6 -5 10 -11 10 -5 0
-7 -4 -4 -10z"/>
<path d="M4878 1693 c6 -2 18 -2 25 0 6 3 1 5 -13 5 -14 0 -19 -2 -12 -5z"/>
<path d="M218 1673 c7 -3 16 -2 19 1 4 3 -2 6 -13 5 -11 0 -14 -3 -6 -6z"/>
<path d="M4618 1652 c-6 -39 0 -52 23 -52 12 0 19 7 19 20 0 12 -7 20 -17 20
-17 1 -17 1 0 11 19 11 14 29 -7 29 -8 0 -16 -13 -18 -28z"/>
<path d="M4869 1663 c-2 -25 1 -94 5 -118 2 -11 -2 -23 -8 -27 -6 -4 9 -7 34
-7 41 1 42 2 15 9 -29 7 -29 8 10 10 22 1 32 4 22 7 -12 3 -16 12 -13 29 3 13
0 24 -5 24 -6 0 -7 5 -4 10 3 6 1 10 -5 10 -7 0 -10 6 -7 14 3 8 1 17 -6 20
-8 3 -8 5 2 5 11 1 11 4 1 16 -17 20 -40 19 -41 -2z"/>
<path d="M30 1655 c-9 -11 -9 -15 -1 -15 6 0 11 -7 11 -15 0 -8 -5 -15 -12
-15 -9 0 -9 -3 -1 -11 6 -6 9 -18 6 -25 -4 -10 3 -14 22 -14 15 0 24 4 20 10
-3 6 0 10 7 10 10 0 10 2 -1 9 -11 7 -11 9 0 14 9 3 7 6 -6 6 -17 1 -17 3 -5
11 13 9 13 10 0 10 -11 0 -12 2 -3 8 9 6 7 11 -7 19 -14 10 -21 9 -30 -2z"/>
<path d="M269 1648 c-1 -13 -1 -26 0 -30 0 -5 -6 -8 -14 -8 -8 0 -15 7 -15 15
0 8 -6 15 -14 15 -15 0 -26 -30 -26 -72 0 -22 5 -28 23 -29 l22 0 -22 -9 c-13
-5 -23 -12 -23 -16 0 -3 7 -3 16 0 14 5 15 4 4 -9 -11 -13 -6 -15 39 -15 55 0
64 6 29 20 -22 8 -21 9 7 10 30 2 30 2 5 10 -22 7 -22 8 -5 10 11 1 24 2 28 1
5 -1 6 3 2 9 -3 5 -17 10 -30 10 -13 0 -26 4 -29 8 -3 5 8 6 24 4 24 -3 29 0
32 19 2 13 1 36 -1 52 -2 21 -9 27 -27 27 -18 0 -24 -6 -25 -22z"/>
<path d="M5010 1641 c0 -17 5 -31 10 -31 6 0 10 9 10 20 0 26 -1 29 -11 36 -5
3 -9 -8 -9 -25z"/>
<path d="M218 1653 c7 -3 16 -2 19 1 4 3 -2 6 -13 5 -11 0 -14 -3 -6 -6z"/>
<path d="M5010 1590 c0 -5 5 -10 10 -10 6 0 10 5 10 10 0 6 -4 10 -10 10 -5 0
-10 -4 -10 -10z"/>
<path d="M4635 1580 c3 -5 8 -10 11 -10 2 0 4 5 4 10 0 6 -5 10 -11 10 -5 0
-7 -4 -4 -10z"/>
<path d="M4620 1551 c0 -6 5 -13 10 -16 6 -4 8 -11 5 -16 -4 -5 1 -9 9 -9 11
0 15 8 14 25 -2 17 -8 25 -20 25 -10 0 -18 -4 -18 -9z"/>
<path d="M33 1530 c1 -13 8 -20 22 -20 14 0 21 7 22 20 1 15 -4 20 -22 20 -18
0 -23 -5 -22 -20z"/>
<path d="M4722 1515 c0 -16 2 -22 5 -12 2 9 2 23 0 30 -3 6 -5 -1 -5 -18z"/>
<path d="M5018 1533 c7 -3 16 -2 19 1 4 3 -2 6 -13 5 -11 0 -14 -3 -6 -6z"/>
<path d="M5020 1503 c0 -5 5 -15 10 -23 8 -12 10 -11 10 8 0 12 -4 22 -10 22
-5 0 -10 -3 -10 -7z"/>
<path d="M40 1485 c0 -8 8 -15 18 -14 10 0 12 3 4 6 -6 2 -10 9 -6 14 3 5 0 9
-5 9 -6 0 -11 -7 -11 -15z"/>
<path d="M4637 1470 c3 -11 7 -20 9 -20 2 0 4 9 4 20 0 11 -4 20 -9 20 -5 0
-7 -9 -4 -20z"/>
<path d="M4893 1483 c15 -2 37 -2 50 0 12 2 0 4 -28 4 -27 0 -38 -2 -22 -4z"/>
<path d="M5113 1415 c0 -44 2 -61 4 -37 2 23 2 59 0 80 -2 20 -4 1 -4 -43z"/>
<path d="M220 1470 c0 -13 50 -13 70 0 11 7 4 10 -27 10 -24 0 -43 -4 -43 -10z"/>
<path d="M4883 1463 c9 -2 25 -2 35 0 9 3 1 5 -18 5 -19 0 -27 -2 -17 -5z"/>
<path d="M238 1443 c6 -2 10 -9 6 -14 -3 -5 2 -9 11 -9 9 0 14 4 10 9 -3 5 5
12 17 14 13 2 5 5 -17 5 -22 0 -34 -2 -27 -5z"/>
<path d="M4875 1440 c-4 -6 7 -10 27 -9 27 0 30 2 13 9 -27 12 -33 12 -40 0z"/>
<path d="M4258 1413 c7 -3 16 -2 19 1 4 3 -2 6 -13 5 -11 0 -14 -3 -6 -6z"/>
<path d="M4333 1413 c15 -2 39 -2 55 0 15 2 2 4 -28 4 -30 0 -43 -2 -27 -4z"/>
<path d="M4710 1409 c0 -5 5 -7 10 -4 6 3 10 8 10 11 0 2 -4 4 -10 4 -5 0 -10
-5 -10 -11z"/>
<path d="M4893 1403 c9 -2 25 -2 35 0 9 3 1 5 -18 5 -19 0 -27 -2 -17 -5z"/>
<path d="M245 1390 c-3 -5 -3 -10 2 -10 4 0 1 -5 -7 -10 -18 -12 -2 -12 25 0
18 8 18 9 2 9 -10 1 -15 6 -12 11 3 6 4 10 1 10 -3 0 -8 -4 -11 -10z"/>
<path d="M4284 1382 c7 -12 118 -14 136 -2 11 7 -8 10 -63 10 -43 0 -76 -4
-73 -8z"/>
<path d="M4893 1373 c9 -2 25 -2 35 0 9 3 1 5 -18 5 -19 0 -27 -2 -17 -5z"/>
<path d="M4312 1340 c10 -15 24 -20 60 -20 27 0 48 5 48 10 0 6 -8 10 -17 11
-12 1 -10 4 7 9 18 6 6 8 -43 9 -65 1 -67 0 -55 -19z"/>
<path d="M245 1340 c-3 -5 1 -10 10 -10 9 0 13 5 10 10 -3 6 -8 10 -10 10 -2
0 -7 -4 -10 -10z"/>
<path d="M3473 1332 l-53 -3 0 -120 c0 -112 1 -119 20 -119 17 0 20 7 20 45 0
41 2 45 25 45 18 0 30 -10 47 -40 16 -28 30 -40 46 -40 12 0 22 2 22 5 0 3
-11 22 -24 43 l-24 38 24 27 c28 33 31 67 7 95 -22 25 -42 29 -110 24z m75
-66 c4 -33 -10 -46 -50 -46 -26 0 -28 3 -28 41 l0 40 38 -3 c33 -3 37 -6 40
-32z"/>
<path d="M4783 1333 c9 -2 25 -2 35 0 9 3 1 5 -18 5 -19 0 -27 -2 -17 -5z"/>
<path d="M3233 1323 l-53 -4 0 -120 0 -121 78 4 c69 3 77 5 80 24 3 19 -1 20
-58 16 l-60 -4 0 30 c0 32 17 42 73 42 20 0 27 5 27 20 0 19 -4 20 -50 14
l-50 -7 0 31 c0 30 1 31 60 38 50 5 60 10 60 25 0 14 -7 19 -27 17 -16 -1 -52
-3 -80 -5z"/>
<path d="M4710 1320 c0 -5 5 -10 10 -10 6 0 10 5 10 10 0 6 -4 10 -10 10 -5 0
-10 -4 -10 -10z"/>
<path d="M4885 1310 c8 -13 35 -13 55 0 11 7 5 10 -23 10 -23 0 -36 -4 -32
-10z"/>
<path d="M240 1300 c0 -5 7 -10 15 -10 8 0 15 5 15 10 0 6 -7 10 -15 10 -8 0
-15 -4 -15 -10z"/>
<path d="M2920 1290 c0 -18 7 -20 55 -20 30 0 55 -2 55 -5 0 -3 -27 -41 -60
-86 -33 -44 -60 -87 -60 -95 0 -12 17 -14 93 -12 85 3 92 5 95 24 3 21 0 22
-63 16 l-67 -5 66 90 c36 50 66 95 66 102 0 7 -30 11 -90 11 -83 0 -90 -1 -90
-20z"/>
<path d="M4344 1275 c9 -30 15 -35 39 -33 34 3 48 18 16 18 -22 0 -22 0 -3 15
18 14 18 14 -11 16 -27 2 -26 3 10 9 l40 7 -51 2 -51 1 11 -35z"/>
<path d="M4788 1303 c7 -3 16 -2 19 1 4 3 -2 6 -13 5 -11 0 -14 -3 -6 -6z"/>
<path d="M2673 1293 c-7 -2 -13 -21 -14 -41 0 -20 -3 -54 -7 -74 l-7 -37 -49
74 c-30 47 -55 75 -66 75 -16 0 -18 -13 -22 -117 -3 -65 -2 -121 1 -125 10
-12 30 7 35 32 2 14 5 50 5 80 l1 55 48 -80 c34 -56 55 -81 70 -83 12 -2 22 0
22 5 0 4 3 61 7 126 6 113 4 122 -24 110z"/>
<path d="M2790 1180 c0 -113 1 -120 20 -120 19 0 20 7 20 104 0 57 3 111 6
120 5 12 0 16 -20 16 l-26 0 0 -120z"/>
<path d="M235 1270 c-16 -7 -11 -9 20 -9 29 -1 36 2 25 9 -17 11 -19 11 -45 0z"/>
<path d="M2306 1272 c-5 -9 -37 -87 -71 -179 -23 -61 -23 -63 -5 -63 12 0 26
12 35 30 14 27 21 30 61 30 38 0 46 -3 54 -25 6 -16 17 -25 31 -25 18 0 20 4
14 27 -3 14 -22 68 -42 120 -27 70 -40 93 -54 93 -10 0 -20 -4 -23 -8z m37
-97 l16 -45 -33 0 -34 0 17 45 c9 25 17 45 17 45 1 0 9 -20 17 -45z"/>
<path d="M2012 1254 c-43 -22 -62 -60 -62 -124 0 -44 4 -56 30 -82 27 -27 35
-29 73 -24 23 3 53 7 67 9 23 2 25 6 28 66 3 55 1 63 -13 57 -9 -3 -30 -6 -47
-6 -23 0 -29 -4 -26 -17 2 -12 11 -17 26 -15 16 2 22 -2 22 -17 0 -41 -67 -54
-101 -20 -18 18 -20 30 -16 67 8 69 63 105 101 67 16 -16 46 -10 46 10 0 37
-78 54 -128 29z"/>
<path d="M4232 1265 c10 -10 90 -16 84 -7 -2 4 -24 9 -48 11 -23 1 -39 -1 -36
-4z"/>
<path d="M4788 1258 c9 -9 15 -9 24 0 9 9 7 12 -12 12 -19 0 -21 -3 -12 -12z"/>
<path d="M1700 1124 c0 -114 2 -125 18 -122 12 2 18 16 22 48 4 37 9 45 25 45
13 0 28 -15 43 -42 18 -33 29 -43 49 -43 l25 0 -27 45 -26 46 20 17 c32 26 37
72 11 105 -20 25 -27 27 -91 27 l-69 0 0 -126z m128 54 c3 -22 -2 -30 -23 -38
-14 -5 -35 -10 -46 -10 -16 0 -19 7 -19 41 l0 40 43 -3 c38 -3 42 -6 45 -30z"/>
<path d="M4875 1240 c-4 -6 3 -10 14 -10 25 0 27 6 6 13 -8 4 -17 2 -20 -3z"/>
<path d="M1458 1224 c-36 -19 -58 -63 -58 -114 0 -54 22 -94 59 -110 61 -25
133 14 152 82 22 85 -18 158 -88 158 -21 -1 -50 -7 -65 -16z m96 -40 c10 -9
16 -33 16 -60 0 -34 -6 -51 -25 -69 -30 -31 -58 -32 -86 -4 -17 17 -20 30 -16
66 2 24 13 53 22 63 22 24 68 26 89 4z"/>
<path d="M3690 1224 c0 -15 12 -16 123 -9 227 14 246 22 55 24 -159 1 -178 -1
-178 -15z"/>
<path d="M4580 1230 c-9 -6 -10 -10 -3 -10 6 0 15 5 18 10 8 12 4 12 -15 0z"/>
<path d="M4790 1236 c0 -8 61 -12 66 -4 3 4 -11 8 -30 8 -20 0 -36 -2 -36 -4z"/>
<path d="M4953 1233 c9 -2 25 -2 35 0 9 3 1 5 -18 5 -19 0 -27 -2 -17 -5z"/>
<path d="M4270 1226 c0 -4 16 -23 35 -43 33 -34 36 -35 82 -27 34 5 41 9 24
12 -19 3 -21 6 -10 13 9 6 -4 9 -41 10 l-55 1 53 8 c61 9 80 20 35 20 -17 0
-51 3 -77 6 -25 4 -46 4 -46 0z"/>
<path d="M210 1200 c0 -12 8 -12 35 0 18 8 17 9 -7 9 -16 1 -28 -3 -28 -9z"/>
<path d="M4588 1203 c7 -3 16 -2 19 1 4 3 -2 6 -13 5 -11 0 -14 -3 -6 -6z"/>
<path d="M4800 1180 c0 -5 17 -10 38 -9 33 1 34 2 12 9 -36 11 -50 11 -50 0z"/>
<path d="M5108 1113 c-2 -43 -1 -154 2 -248 6 -170 6 -170 8 78 1 136 0 247
-2 247 -3 0 -6 -35 -8 -77z"/>
<path d="M4835 1140 c-3 -5 -27 -11 -53 -11 -26 -1 -38 -4 -28 -6 19 -5 231 6
224 12 -2 1 -33 5 -70 9 -42 4 -69 3 -73 -4z"/>
<path d="M4331 1126 c-8 -9 -47 -16 -124 -20 -217 -13 -292 -19 -337 -27 -39
-7 -36 -8 20 -4 36 3 130 7 210 11 80 3 148 8 152 10 3 2 13 1 22 -2 15 -6 15
-7 0 -18 -13 -10 -10 -12 18 -11 18 1 53 3 77 3 37 2 42 4 31 17 -10 12 -9 15
6 16 11 1 6 5 -11 9 l-30 8 33 1 c17 0 32 6 32 11 0 15 -86 12 -99 -4z"/>
<path d="M4575 1129 c-15 -6 -11 -8 18 -8 20 -1 37 1 37 3 0 9 -37 12 -55 5z"/>
<path d="M1110 1109 c-47 -5 -119 -13 -160 -18 -73 -8 -72 -8 50 -9 172 0 292
10 298 26 4 14 -52 14 -188 1z"/>
<path d="M4778 1093 c6 -2 18 -2 25 0 6 3 1 5 -13 5 -14 0 -19 -2 -12 -5z"/>
<path d="M4760 1066 l-35 -13 66 -11 c36 -7 88 -11 115 -10 40 1 43 2 14 5
-62 8 -58 23 6 24 l59 2 -60 7 c-87 11 -126 10 -165 -4z"/>
<path d="M4585 1060 c3 -5 13 -10 21 -10 8 0 12 5 9 10 -3 6 -13 10 -21 10 -8
0 -12 -4 -9 -10z"/>
<path d="M3920 1041 c-60 -7 -58 -15 8 -26 35 -6 41 -9 31 -21 -10 -12 0 -14
59 -14 39 0 74 5 77 10 4 6 -6 11 -22 11 -26 2 -25 2 7 9 23 5 28 8 13 9 -13
0 -23 5 -23 10 0 5 10 12 23 14 33 6 -109 5 -173 -2z"/>
<path d="M4245 1040 c-18 -7 -17 -8 8 -15 38 -10 164 -2 178 12 8 8 -13 11
-78 10 -48 0 -97 -3 -108 -7z"/>
<path d="M805 1030 l-40 -7 45 -1 c25 0 70 3 100 8 l55 7 -60 0 c-33 0 -78 -3
-100 -7z"/>
<path d="M498 1020 c-98 -6 -146 -20 -72 -20 80 0 204 13 204 21 0 5 -8 8 -17
7 -10 0 -62 -4 -115 -8z"/>
<path d="M4250 1000 c-49 -8 -50 -7 65 -20 44 -5 98 -11 120 -14 l40 -6 -35
11 c-19 6 -40 15 -46 20 -16 13 -92 18 -144 9z"/>
<path d="M4810 1000 c-33 -7 -33 -7 -7 -9 18 0 27 -6 25 -13 -3 -8 -24 -11
-59 -10 l-54 1 60 -14 c33 -7 83 -13 110 -13 l50 1 -45 7 c-44 7 -43 7 19 8
86 3 74 14 -22 21 -5 1 -5 6 -2 11 3 6 2 10 -4 10 -5 0 -15 2 -23 4 -7 2 -29
0 -48 -4z"/>
<path d="M3160 936 c-30 -24 -98 -87 -150 -140 l-95 -96 40 0 c37 0 47 7 128
85 87 85 157 168 157 186 0 19 -27 7 -80 -35z"/>
<path d="M2874 960 c-6 -6 -166 -17 -364 -26 -195 -8 -389 -19 -430 -23 -73
-8 -71 -8 55 -10 l130 -2 108 -99 c60 -55 116 -100 124 -100 14 0 14 2 -1 19
-10 11 -60 55 -111 98 l-94 78 42 6 c23 4 130 10 237 13 107 4 208 10 224 13
15 3 27 1 25 -4 -2 -5 -55 -56 -118 -113 -63 -57 -108 -106 -102 -108 7 -2 51
33 99 79 48 46 101 97 119 114 30 28 41 32 142 43 61 7 121 17 133 22 18 8 13
9 -22 5 -155 -15 -173 -16 -180 -6 -4 7 -9 8 -16 1z"/>
<path d="M3924 962 c4 -7 -7 -13 -31 -17 -70 -12 -59 -13 104 -14 89 -1 164 3
167 8 9 13 -29 21 -143 28 -75 4 -102 3 -97 -5z"/>
<path d="M4215 950 c-14 -6 -15 -9 -5 -9 8 -1 44 -6 80 -11 46 -6 77 -6 105 2
l40 12 -50 7 c-68 10 -146 9 -170 -1z"/>
<path d="M1900 901 c0 -5 44 -52 97 -105 86 -85 102 -96 132 -96 l35 0 -74 76
c-41 42 -94 89 -117 105 -41 29 -73 37 -73 20z"/>
<path d="M3896 883 c-34 -10 -45 -17 -36 -23 17 -11 290 -13 290 -3 0 5 -9 16
-20 26 -16 13 -38 17 -103 16 -45 0 -104 -7 -131 -16z"/>
<path d="M4231 892 c-9 -7 -10 -12 -2 -16 6 -4 8 -12 5 -18 -5 -8 16 -9 71 -5
43 4 103 8 134 9 l56 1 -50 7 c-47 6 -47 7 -12 8 69 3 28 22 -46 22 -54 0 -68
-3 -57 -11 12 -9 11 -9 -5 -3 -34 12 -79 15 -94 6z"/>
<path d="M1486 881 c5 -5 40 -5 79 -1 l70 7 -79 2 c-47 0 -76 -3 -70 -8z"/>
<path d="M3616 877 c3 -10 9 -15 12 -12 3 3 0 11 -7 18 -10 9 -11 8 -5 -6z"/>
<path d="M3823 883 c9 -2 23 -2 30 0 6 3 -1 5 -18 5 -16 0 -22 -2 -12 -5z"/>
<path d="M4780 881 c-8 -6 -18 -7 -22 -5 -4 3 -8 0 -8 -6 0 -13 128 -12 145 0
6 5 21 10 35 13 14 2 -11 5 -55 5 -44 1 -87 -2 -95 -7z"/>
<path d="M4693 873 c9 -2 25 -2 35 0 9 3 1 5 -18 5 -19 0 -27 -2 -17 -5z"/>
<path d="M1390 840 c0 -5 -16 -10 -36 -10 -31 0 -34 -2 -20 -15 18 -18 55 -19
76 -2 23 18 23 37 0 37 -11 0 -20 -4 -20 -10z"/>
<path d="M1462 830 c-10 -17 -10 -20 2 -20 21 0 66 22 66 32 0 17 -55 8 -68
-12z"/>
<path d="M3918 823 c6 -2 18 -2 25 0 6 3 1 5 -13 5 -14 0 -19 -2 -12 -5z"/>
<path d="M3963 824 c10 -10 84 -12 99 -3 8 5 -10 9 -46 9 -33 0 -56 -3 -53 -6z"/>
<path d="M4270 820 c19 -5 46 -6 59 -3 18 4 22 3 16 -7 -5 -9 -4 -11 3 -6 27
17 8 26 -50 25 -56 -1 -59 -2 -28 -9z"/>
<path d="M3585 790 c11 -5 29 -9 40 -9 17 -1 17 1 5 9 -8 5 -26 9 -40 9 -23 0
-23 -1 -5 -9z"/>
<path d="M3894 768 c0 -18 6 -19 86 -17 81 3 162 17 175 31 4 3 -54 6 -127 6
-127 0 -134 -1 -134 -20z"/>
<path d="M4240 760 c8 -5 31 -9 50 -9 32 1 33 2 10 9 -14 4 -36 8 -50 9 -20 1
-22 -1 -10 -9z"/>
<path d="M4255 730 c-20 -5 1 -8 67 -9 53 0 99 3 102 7 6 11 -129 12 -169 2z"/>
<path d="M1348 723 c7 -3 16 -2 19 1 4 3 -2 6 -13 5 -11 0 -14 -3 -6 -6z"/>
<path d="M3882 720 c15 -4 69 -5 120 0 l93 7 -120 1 c-77 0 -110 -3 -93 -8z"/>
<path d="M4123 723 c9 -2 25 -2 35 0 9 3 1 5 -18 5 -19 0 -27 -2 -17 -5z"/>
</g>
</svg>
